<svg xmlns="http://www.w3.org/2000/svg" width="50" height="63.426" viewBox="0 0 50 63.426">
  <g id="fire-extinguisher-svgrepo-com" transform="translate(-50.367)">
    <path id="Path_41" data-name="Path 41" d="M100.367,4.517a2.194,2.194,0,0,0-2.194-2.194H85.007a2.209,2.209,0,0,0-.652.1v-.1H83.59C83.152.995,81.429,0,79.373,0c-2.385,0-4.325,1.338-4.325,2.982a2.978,2.978,0,0,0,2.1,2.551v.948A16.289,16.289,0,0,0,67.4,7.832a8.654,8.654,0,0,0-3.887,4.061A10.492,10.492,0,0,0,63,17.656c.268,1.913.906,3.742,1.306,5.624a62.261,62.261,0,0,1,1.016,6.451c.417,3.962.624,8.186-.551,12.039a24.172,24.172,0,0,1-1.763,4.239L60.87,44.58,50.367,57.8l8.421,5.63,8.255-14.718L64.9,47.273a26.423,26.423,0,0,0,2.382-6.154c1.01-4.089.639-8.614.132-12.748A51.976,51.976,0,0,0,66.316,22,36.924,36.924,0,0,1,65.1,16.438a7,7,0,0,1,.762-4.228,7.1,7.1,0,0,1,3.254-2.729,14.2,14.2,0,0,1,8.032-.745v1.282a10.829,10.829,0,0,0-6.73,10.022V60.965a2.461,2.461,0,0,0,2.461,2.461H89.609a2.461,2.461,0,0,0,2.461-2.461V20.04A10.83,10.83,0,0,0,84.354,9.669V7.1l11.222,6.2A2.194,2.194,0,0,0,97.7,9.455L92.734,6.712h5.439A2.195,2.195,0,0,0,100.367,4.517ZM75.688,2.982c0-1.291,1.653-2.341,3.685-2.341a3.849,3.849,0,0,1,3.535,1.683H77.144V4.842A2.223,2.223,0,0,1,75.688,2.982ZM86.46,43.339H82.719c.072-.238.147-.474.223-.7.489-1.471.914-2.742-.805-3.943l-.056.056c1.027,1.446.276,2.994-.7,4.587H79a5.1,5.1,0,0,0-.467-1.693c-.586-.952-1.06-1.878-.448-2.74l-.032-.032c-1,.7-.754,1.439-.469,2.3.053.16.109.325.157.494A1.392,1.392,0,0,1,77.48,42.8a.844.844,0,0,1-.627.285.729.729,0,0,1-.447-.144A2.047,2.047,0,0,1,75.52,41.3a3.208,3.208,0,0,1,1.294-2.056c1.523-.972,2.3-2.515,1.856-3.67a2.357,2.357,0,0,0-.263-.528,2.6,2.6,0,0,1-.335-2.158l-.043-.015A3.351,3.351,0,0,0,77.822,35c.13,1.1.251,2.135-1.313,2.8-.04.019-.1.043-.168.072A3.237,3.237,0,0,0,74.1,40.646a6.807,6.807,0,0,0,.185,2.695H72.5V28.6h9.635a4.384,4.384,0,0,1-.607,3.526,4.185,4.185,0,0,0-.451.907c-.768,1.983.575,4.635,3.19,6.3.02.014,2.157,1.569,2.223,3.531A2.416,2.416,0,0,1,86.46,43.339ZM90.123,28.6v14.74H89.017a13.99,13.99,0,0,0-.09-1.6,5.556,5.556,0,0,0-3.851-4.764c-.121-.051-.219-.09-.287-.125-2.687-1.142-2.477-2.923-2.255-4.81a6.118,6.118,0,0,0-.248-3.442Z" transform="translate(0)" fill="#ffe600"/>
  </g>
</svg>
