<svg xmlns="http://www.w3.org/2000/svg" width="92" height="92" viewBox="0 0 92 92"><g transform="translate(0.444 0.103)"><path d="M60.423,41.479c-.787-1.868-1.68-3.988-2.553-6.6-2.283-6.844,5.012-14.312,5.081-14.382l-4.086-4.086c-.407.406-9.893,10.05-6.478,20.3.942,2.826,1.882,5.055,2.711,7.023a27.111,27.111,0,0,1,2.921,12.293,18.033,18.033,0,0,1-12.107,15.3A24.622,24.622,0,0,0,39.832,48.2l-3.018-3.019L35.134,49.1C29.827,61.481,23.513,66.885,19.8,69.139a16.888,16.888,0,0,1-8.019-13.12,27.812,27.812,0,0,1,2.684-10.487A32.751,32.751,0,0,0,17.56,32.9V27.76c2.524,1.04,5.78,3.768,5.78,10.919V46.2l5.038-5.589c8.993-9.984,7.116-21.87,3.485-29.79A12.964,12.964,0,0,1,40.679,24.23h5.78C46.459,8.228,33.227,4,26.23,4H20.45l3.466,4.62c.4.536,8.273,11.351,3.912,22.218a14.284,14.284,0,0,0-13.157-9.5H11.78V32.9A27.813,27.813,0,0,1,9.1,43.387,32.751,32.751,0,0,0,6,56.019c0,11.12,11.049,23.119,28.9,23.119s28.9-12,28.9-23.119A32.879,32.879,0,0,0,60.423,41.479ZM25.753,71.99A47.68,47.68,0,0,0,38.372,55.81a17.644,17.644,0,0,1,.744,17.258,32.719,32.719,0,0,1-4.216.291A29.847,29.847,0,0,1,25.753,71.99Z" transform="translate(11.34 7.224)" fill="#ffe600"/><rect width="92" height="92" transform="translate(-0.444 -0.103)" fill="none"/></g></svg>