<svg xmlns="http://www.w3.org/2000/svg" width="61.923" height="62" viewBox="0 0 61.923 62"><path d="M61.837,60.286,49.3,24.8a1.258,1.258,0,0,0-1.191-.925H42.333c1.634-3.939,2.482-6.953,2.482-8.967C44.816,6.725,38.483,0,30.567,0,22.778,0,16.319,6.6,16.319,14.907c0,2.229,1.039,5.459,2.52,8.967H13.812a1.267,1.267,0,0,0-1.191.925L.083,60.286A1.266,1.266,0,0,0,1.273,62H60.647a1.244,1.244,0,0,0,1.191-1.71ZM30.567,2.622c6.459,0,11.614,5.535,11.614,12.272,0,7.156-10.031,23.088-11.614,25.723C26.6,33.892,18.954,20.163,18.954,14.894c0-6.725,5.142-12.272,11.614-12.272ZM3.122,59.361,14.736,26.508h5.281c3.787,8.118,10.55,19.124,10.55,19.124S40.877,27.179,41.181,26.508h6L58.8,59.361Z" transform="translate(0 0)" fill="#177e89"/><rect width="17.288" height="2.634" transform="translate(22.385 48.013)" fill="#177e89"/><path d="M205.583,66.367a6.067,6.067,0,0,0-12.133,0,6.067,6.067,0,0,0,12.133,0Zm-9.5-.127a3.432,3.432,0,1,1,3.432,3.432A3.494,3.494,0,0,1,196.084,66.24Z" transform="translate(-168.95 -52.663)" fill="#177e89"/></svg>