<svg xmlns="http://www.w3.org/2000/svg" width="64.018" height="48" viewBox="0 0 64.018 48"><path d="M59.088,0H4.93A4.94,4.94,0,0,0,0,4.93V43.07A4.94,4.94,0,0,0,4.93,48H59.088a4.94,4.94,0,0,0,4.93-4.93V4.93A4.94,4.94,0,0,0,59.088,0Zm-.716,3.647L32.347,25.9,6.321,3.647Zm2,39.424a1.291,1.291,0,0,1-1.283,1.283H4.93A1.291,1.291,0,0,1,3.647,43.07V6.159L31.158,29.686c.014.014.041.027.054.041s.041.027.054.041a.474.474,0,0,0,.108.068c.014.014.027.014.041.027l.162.081c.014,0,.027.014.041.014a1.4,1.4,0,0,0,.135.054c.014,0,.041.014.054.014a.394.394,0,0,0,.122.027c.014,0,.041.014.054.014.041.014.095.014.135.027h.041c.054,0,.122.014.176.014h0a.77.77,0,0,0,.176-.014h.041a.479.479,0,0,0,.135-.027c.014,0,.041-.014.054-.014a.394.394,0,0,1,.122-.027c.014,0,.041-.014.054-.014a.931.931,0,0,0,.135-.054c.014,0,.027-.014.041-.014l.162-.081c.014-.014.027-.014.041-.027.041-.027.068-.041.108-.068.014-.014.041-.027.054-.041s.041-.027.054-.041L60.371,6.739Z" fill="#177e89"/></svg>