<svg xmlns="http://www.w3.org/2000/svg" width="63.021" height="62" viewBox="0 0 63.021 62"><path d="M46.295,39.558a5.179,5.179,0,0,0-3.908-.683,3.561,3.561,0,0,0-2.1,1.628,36.348,36.348,0,0,1-2.721,3.015C35.076,45.2,33.1,45,30.958,42.856L18.908,30.786c-2.1-2.1-2.343-4.128-.662-6.608a34.183,34.183,0,0,1,3.015-2.731,3.509,3.509,0,0,0,1.628-2.1,5.168,5.168,0,0,0-.693-3.918c-.179-.315-4.507-7.637-8.488-9.749a5.158,5.158,0,0,0-6.093.914L4.926,9.272c-7.774,7.774-6.3,17.428,4.2,27.933L24.571,52.647c4.769,4.769,9.391,7.7,13.73,8.7a14.633,14.633,0,0,0,3.383.4c3.908,0,7.532-1.649,10.82-4.937l2.668-2.658a5.168,5.168,0,0,0,.914-6.093C53.942,44.064,46.62,39.747,46.295,39.558Zm7.353,13.1L50.99,55.326c-6.87,6.9-15.274,5.494-24.96-4.107L10.578,35.713C.914,26.059-.484,17.655,6.376,10.753l2.71-2.668a3.078,3.078,0,0,1,2.175-.9,2.994,2.994,0,0,1,1.439.368c3.467,1.828,7.627,8.877,7.658,8.94a3.225,3.225,0,0,1,.483,2.3,1.429,1.429,0,0,1-.725.882l-.158.105a31.252,31.252,0,0,0-3.467,3.215,8.814,8.814,0,0,0-1.3,2.8,14.938,14.938,0,0,1-1.534-5.126,1.056,1.056,0,0,0-2.1.21c.756,7.353,6.44,12.06,6.681,12.259l.084.053L29.466,44.337l.147.137a.819.819,0,0,0,.105.158A21.945,21.945,0,0,0,41.9,50.168h.116a1.053,1.053,0,0,0,.105-2.1,18.467,18.467,0,0,1-5.83-1.639,8.961,8.961,0,0,0,2.448-1.208,29.582,29.582,0,0,0,3.215-3.456l.116-.158a1.387,1.387,0,0,1,.872-.714,3.267,3.267,0,0,1,2.3.473c1.975,1.156,7.427,4.79,8.95,7.669a3.046,3.046,0,0,1-.546,3.624Z" transform="translate(-0.008 0.256)" fill="#177e89"/><path d="M27.41,0a1.05,1.05,0,0,0,0,2.1A32.219,32.219,0,0,1,59.6,34.288a1.05,1.05,0,0,0,2.1,0A34.32,34.32,0,0,0,27.41,0Z" transform="translate(1.323)" fill="#177e89"/><path d="M27.41,9.1A24.823,24.823,0,0,1,52.244,33.924a1.05,1.05,0,1,0,2.1,0A26.935,26.935,0,0,0,27.41,7a1.05,1.05,0,1,0,0,2.1Z" transform="translate(1.323 0.353)" fill="#177e89"/><path d="M27.41,16.161A17.438,17.438,0,0,1,44.828,33.578a1.05,1.05,0,0,0,2.1,0A19.539,19.539,0,0,0,27.41,14.06a1.05,1.05,0,1,0,0,2.1Z" transform="translate(1.323 0.71)" fill="#177e89"/></svg>