<svg xmlns="http://www.w3.org/2000/svg" width="81.547" height="85.398" viewBox="0 0 81.547 85.398"><path d="M83.324,127.086a12.151,12.151,0,0,0-12.129,12.146c0,4.466,3.52,8.092,3.92,8.49a9.169,9.169,0,0,1,1.813,3.022l.969,3.972A2.167,2.167,0,0,0,80,156.369h6.641a2.167,2.167,0,0,0,2.106-1.654l.97-3.973a9.167,9.167,0,0,1,1.813-3.021c.4-.4,3.92-4.025,3.92-8.49A12.15,12.15,0,0,0,83.324,127.086Zm5.152,17.562a13.2,13.2,0,0,0-2.928,4.914c-.01.032-.018.065-.026.1l-.58,2.375H81.706l-.579-2.374c-.008-.034-.017-.067-.027-.1a13.208,13.208,0,0,0-2.923-4.908c-.736-.741-2.646-3.16-2.646-5.42a7.794,7.794,0,1,1,15.587,0C91.117,141.492,89.207,143.911,88.475,144.648Z" transform="translate(-52.546 -90.359)" fill="#ffe600"/><path d="M66.051,0H8.83A2.167,2.167,0,0,0,6.663,2.167V83.23A2.167,2.167,0,0,0,8.83,85.4H66.051a2.167,2.167,0,0,0,2.167-2.167V2.167A2.167,2.167,0,0,0,66.051,0ZM63.884,81.063H11V4.335H63.884Z" transform="translate(-6.663)" fill="#ffe600"/><path d="M41.83,48.822H79.978a2.167,2.167,0,0,0,2.167-2.167V35.167A2.167,2.167,0,0,0,79.978,33H41.83a2.167,2.167,0,0,0-2.167,2.167V46.655A2.167,2.167,0,0,0,41.83,48.822ZM44,37.335H77.81v7.153H44Z" transform="translate(-30.126 -23.463)" fill="#ffe600"/><path d="M104.349,235.25H99.58a2.167,2.167,0,1,0,0,4.335h4.768a2.167,2.167,0,0,0,0-4.335Z" transform="translate(-71.187 -167.264)" fill="#ffe600"/><path d="M107.72,254.75h-.152a2.167,2.167,0,1,0,0,4.335h.152a2.167,2.167,0,1,0,0-4.335Z" transform="translate(-76.866 -181.129)" fill="#ffe600"/><path d="M107.72,107.585a2.167,2.167,0,1,0,0-4.335h-.152a2.167,2.167,0,0,0,0,4.335Z" transform="translate(-76.866 -73.411)" fill="#ffe600"/><path d="M64.887,118.417a2.167,2.167,0,0,0-2.167-2.167h-.152a2.167,2.167,0,0,0,0,4.335h.152A2.167,2.167,0,0,0,64.887,118.417Z" transform="translate(-44.87 -82.654)" fill="#ffe600"/><path d="M152.72,116.25h-.152a2.167,2.167,0,1,0,0,4.335h.152a2.167,2.167,0,0,0,0-4.335Z" transform="translate(-108.861 -82.654)" fill="#ffe600"/><path d="M169.72,152.75h-.152a2.167,2.167,0,0,0,0,4.335h.152a2.167,2.167,0,1,0,0-4.335Z" transform="translate(-120.948 -108.606)" fill="#ffe600"/><path d="M48.72,152.75h-.152a2.167,2.167,0,1,0,0,4.335h.152a2.167,2.167,0,1,0,0-4.335Z" transform="translate(-34.916 -108.606)" fill="#ffe600"/><path d="M237.664,93.769a2.168,2.168,0,0,0,.229.97l5.227,10.454a2.167,2.167,0,0,0,3.877,0l5.227-10.454a2.168,2.168,0,0,0,.229-.97V42.417a2.167,2.167,0,0,0-2.167-2.167H239.831a2.167,2.167,0,0,0-2.167,2.167ZM242,91.6V51.554h6.119V91.6H242Zm6.119-47.017v2.634H242V44.585Zm-3.06,54.792-1.72-3.44h3.44Z" transform="translate(-170.906 -28.618)" fill="#ffe600"/></svg>