<svg xmlns="http://www.w3.org/2000/svg" width="73.833" height="76.399" viewBox="0 0 73.833 76.399"><g transform="translate(0)"><path d="M17.139,206.011a.966.966,0,0,0-1.789,0L6.712,227.156a.966.966,0,0,0,1.38,1.2l3.613-2.1v14.9a.966.966,0,0,0,.966.966h7.149a.966.966,0,0,0,.966-.966v-14.9l3.615,2.1a.966.966,0,0,0,1.38-1.2Z" transform="translate(-6.64 -165.722)" fill="#ffe600"/><path d="M122.426,121.768a.966.966,0,0,0-1.789,0L112,142.913a.966.966,0,0,0,1.38,1.2l3.613-2.1v31.173a.966.966,0,0,0,.966.966h7.149a.966.966,0,0,0,.966-.966V142.015l3.615,2.1a.966.966,0,0,0,1.38-1.2Z" transform="translate(-91.584 -97.756)" fill="#ffe600"/><path d="M279.286,16.279c3.851,0,6.725-3.588,6.79-9.605C286.117,2.5,284.129,0,279.286,0s-6.833,2.5-6.79,6.674C272.56,12.691,275.434,16.279,279.286,16.279Z" transform="translate(-221.128 0)" fill="#ffe600"/></g><g transform="translate(42.482 16.385)"><path d="M257.833,111.5c-.247-1.685-.46-3.379-.666-5.016-1.094-8.7-2.039-16.21-7.477-18.819l-3.447-1.6-1.5-1.267-2.287,2.275,2.333,15.6a.2.2,0,0,1-.037.15l-2.4,3.285a.2.2,0,0,1-.328,0l-2.4-3.285a.2.2,0,0,1-.037-.15l2.333-15.6L239.632,84.8l-1.5,1.267s-3.473,1.609-3.617,1.7c-5.285,2.685-6.224,10.125-7.306,18.73-.206,1.638-.419,3.332-.666,5.017a2.632,2.632,0,0,0,2.223,2.987,2.582,2.582,0,0,0,.385.028,2.633,2.633,0,0,0,2.6-2.25c.255-1.739.471-3.46.681-5.124a89.319,89.319,0,0,1,1.426-8.98l0,11.181a6.167,6.167,0,0,0,1.314,3.773l0,28.518a3.171,3.171,0,0,0,6.342,0l0-25.14q.338.029.672.03c.222,0,.447-.011.672-.03v25.14a3.171,3.171,0,1,0,6.342,0V113.126a6.168,6.168,0,0,0,1.314-3.772l0-11.191a89.27,89.27,0,0,1,1.426,8.98c.209,1.664.426,3.385.68,5.124a2.633,2.633,0,0,0,2.6,2.251,2.665,2.665,0,0,0,.385-.028A2.633,2.633,0,0,0,257.833,111.5Z" transform="translate(-226.511 -84.801)" fill="#ffe600"/></g></svg>