<svg xmlns="http://www.w3.org/2000/svg" width="87.556" height="87.556" viewBox="0 0 87.556 87.556"><path d="M237.935,240.853a2.919,2.919,0,1,0-2.919-2.919A2.921,2.921,0,0,0,237.935,240.853Z" transform="translate(-194.156 -194.156)" fill="#ffe600"/><path d="M43.778,0A43.778,43.778,0,1,0,87.556,43.778,43.828,43.828,0,0,0,43.778,0ZM62.749,13.133a2.919,2.919,0,1,1-2.919,2.919A2.919,2.919,0,0,1,62.749,13.133ZM10.215,27.726a2.919,2.919,0,1,1,2.919,2.919A2.919,2.919,0,0,1,10.215,27.726ZM43.778,72.964a28.939,28.939,0,0,1-19.547-7.575L20,69.618a1.459,1.459,0,0,1-2.063-2.063l20.83-20.83a5.761,5.761,0,0,1-.827-2.946,5.837,5.837,0,1,1,5.837,5.837,5.761,5.761,0,0,1-2.946-.827l-4.2,4.2a11.57,11.57,0,0,0,7.149,2.462,11.668,11.668,0,1,0-11.522-9.792,1.459,1.459,0,0,1-2.881.47,14.593,14.593,0,1,1,14.4,12.24,14.478,14.478,0,0,1-9.233-3.3L26.3,63.324a26.226,26.226,0,1,0-8.785-19.546,26.507,26.507,0,0,0,.343,4.251,1.459,1.459,0,1,1-2.881.47,29.187,29.187,0,1,1,28.8,24.465ZM61.29,56.912a2.919,2.919,0,1,1-2.919-2.919A2.92,2.92,0,0,1,61.29,56.912Z" fill="#ffe600"/></svg>