<svg xmlns="http://www.w3.org/2000/svg" width="50" height="50" viewBox="0 0 50 50">
  <path id="security-protection-fire-alarm-svgrepo-com" d="M25,0A25,25,0,1,0,50,25,25.073,25.073,0,0,0,25,0Zm3.438,6.562a18.822,18.822,0,0,1,15,15,1.714,1.714,0,0,1-1.25,1.875h-.313a1.522,1.522,0,0,1-1.562-1.25,15.652,15.652,0,0,0-12.5-12.5,1.593,1.593,0,1,1,.625-3.125Zm-6.875,0a1.621,1.621,0,0,1,1.875,1.25,1.714,1.714,0,0,1-1.25,1.875,15.652,15.652,0,0,0-12.5,12.5,1.522,1.522,0,0,1-1.562,1.25H7.812a1.621,1.621,0,0,1-1.25-1.875A19.022,19.022,0,0,1,21.563,6.562Zm.313,36.875h-.312a19.022,19.022,0,0,1-15-15,1.621,1.621,0,0,1,1.25-1.875,1.714,1.714,0,0,1,1.875,1.25,15.652,15.652,0,0,0,12.5,12.5,1.621,1.621,0,0,1,1.25,1.875A1.522,1.522,0,0,1,21.875,43.437ZM25,35.938h0c-4.844,0-9.219-4.063-9.375-8.594a12.026,12.026,0,0,1,2.813-8.437l.469-.469a16.881,16.881,0,0,0,2.969-4.687,3.408,3.408,0,0,1,.625-.781,1.638,1.638,0,0,1,2.031.156A10.453,10.453,0,0,1,27.5,18.75a41.566,41.566,0,0,1,.469,4.375v.781a2.839,2.839,0,0,0,2.344-1.562h0l.313-.469a1.641,1.641,0,0,1,1.406-.781,1.5,1.5,0,0,1,1.406.938,11.544,11.544,0,0,1,.781,6.875A9.6,9.6,0,0,1,25,35.938Zm3.438,7.5h-.313a1.522,1.522,0,0,1-1.562-1.25,1.714,1.714,0,0,1,1.25-1.875,15.652,15.652,0,0,0,12.5-12.5,1.593,1.593,0,1,1,3.125.625A19.022,19.022,0,0,1,28.438,43.437Z" fill="#ffe600"/>
</svg>
