<svg xmlns="http://www.w3.org/2000/svg" width="50" height="50" viewBox="0 0 50 50">
  <g id="manage-protection-svgrepo-com" transform="translate(0 0.442)">
    <path id="Path_42" data-name="Path 42" d="M22.521,45.549l-9.532-5.121A17.1,17.1,0,0,1,4,25.33V5.111A3.1,3.1,0,0,1,7.087,2H37.955a3.1,3.1,0,0,1,3.087,3.111V25.33a17.1,17.1,0,0,1-8.989,15.1ZM7.087,5.111V25.33a13.99,13.99,0,0,0,7.355,12.353l8.079,4.341L30.6,37.682A13.99,13.99,0,0,0,37.955,25.33V5.111Z" transform="translate(2.507 1.055)" fill="#ffe600"/>
    <path id="Path_43" data-name="Path 43" d="M16,35.359V6H29.014V22.456A10.586,10.586,0,0,1,23,31.857Z" transform="translate(8.693 3.562)" fill="#ffe600"/>
    <rect id="_Transparent_Rectangle_" data-name="&lt;Transparent Rectangle&gt;" width="50" height="50" transform="translate(0 -0.443)" fill="none"/>
  </g>
</svg>
