<svg xmlns="http://www.w3.org/2000/svg" width="122.198" height="46.187" viewBox="0 0 122.198 46.187"><path d="M120.218,186.228h-2.243v-27.58A1.98,1.98,0,0,0,116,156.668H41.964V145.979A1.979,1.979,0,0,0,39.985,144H6.2a1.979,1.979,0,0,0-1.979,1.979v40.249H1.979a1.979,1.979,0,1,0,0,3.959H120.218a1.979,1.979,0,1,0,0-3.959Zm-78.254-6.6h72.052v6.6H41.964Zm59.119-3.959V160.627h4.487v15.044Zm-3.959,0H92.638V160.627h4.487Zm-8.446,0H84.192V160.627h4.487Zm-8.446,0H75.747V160.627h4.487Zm-8.446,0H67.3V160.627h4.487Zm-8.446,0H58.855V160.627h4.487Zm-8.446,0H50.41V160.627H54.9Zm59.119,0h-4.487V160.627h4.487ZM46.451,160.627v15.044H41.964V160.627ZM8.182,147.959H38.005v38.269H8.182Z" transform="translate(0 -144)" fill="#ffe600"/><path d="M54.2,272H49.979a1.979,1.979,0,0,0,0,3.959H54.2a1.979,1.979,0,0,0,0-3.959Z" transform="translate(-35.332 -238.218)" fill="#ffe600"/><path d="M102.2,272H97.979a1.979,1.979,0,0,0,0,3.959H102.2a1.979,1.979,0,0,0,0-3.959Z" transform="translate(-70.663 -238.218)" fill="#ffe600"/><path d="M54.2,240H49.979a1.979,1.979,0,1,0,0,3.959H54.2a1.979,1.979,0,1,0,0-3.959Z" transform="translate(-35.332 -214.663)" fill="#ffe600"/><path d="M102.2,240H97.979a1.979,1.979,0,1,0,0,3.959H102.2a1.979,1.979,0,1,0,0-3.959Z" transform="translate(-70.663 -214.663)" fill="#ffe600"/><path d="M54.2,208H49.979a1.979,1.979,0,1,0,0,3.959H54.2a1.979,1.979,0,1,0,0-3.959Z" transform="translate(-35.332 -191.109)" fill="#ffe600"/><path d="M102.2,208H97.979a1.979,1.979,0,1,0,0,3.959H102.2a1.979,1.979,0,1,0,0-3.959Z" transform="translate(-70.663 -191.109)" fill="#ffe600"/><path d="M54.2,176H49.979a1.979,1.979,0,0,0,0,3.959H54.2a1.979,1.979,0,0,0,0-3.959Z" transform="translate(-35.332 -167.554)" fill="#ffe600"/><path d="M97.979,179.959H102.2a1.979,1.979,0,0,0,0-3.959H97.979a1.979,1.979,0,0,0,0,3.959Z" transform="translate(-70.663 -167.554)" fill="#ffe600"/></svg>